<svg xmlns="http://www.w3.org/2000/svg" width="720" height="470" viewBox="0 0 720 470">
<rect width="100%" height="100%" fill="white"/>
<style>text{font-family:Arial,Helvetica,sans-serif;fill:#111}.axis{stroke:#111;stroke-width:1.2}.grid{stroke:#ddd;stroke-width:.7}.fit{fill:none;stroke-width:2}.pt{stroke-width:1}</style>
<text x="360.0" y="28" text-anchor="middle" font-size="18">Cepeda et al. (2008): SAC + logistic response</text><text x="360.0" y="50" text-anchor="middle" font-size="15">f(t) = (1 + t)^(-d)</text>
<line class="grid" x1="68" y1="412.0" x2="692" y2="412.0"/><text x="58" y="416.0" text-anchor="end" font-size="12">0</text><line class="grid" x1="68" y1="344.4" x2="692" y2="344.4"/><text x="58" y="348.4" text-anchor="end" font-size="12">20</text><line class="grid" x1="68" y1="276.8" x2="692" y2="276.8"/><text x="58" y="280.8" text-anchor="end" font-size="12">40</text><line class="grid" x1="68" y1="209.2" x2="692" y2="209.2"/><text x="58" y="213.2" text-anchor="end" font-size="12">60</text><line class="grid" x1="68" y1="141.6" x2="692" y2="141.6"/><text x="58" y="145.6" text-anchor="end" font-size="12">80</text><line class="grid" x1="68" y1="74.0" x2="692" y2="74.0"/><text x="58" y="78.0" text-anchor="end" font-size="12">100</text>
<line class="grid" x1="68.0" y1="74" x2="68.0" y2="412"/><text x="68.0" y="432" text-anchor="middle" font-size="12">0</text><line class="grid" x1="109.6" y1="74" x2="109.6" y2="412"/><text x="109.6" y="432" text-anchor="middle" font-size="12">7</text><line class="grid" x1="151.2" y1="74" x2="151.2" y2="412"/><text x="151.2" y="432" text-anchor="middle" font-size="12">14</text><line class="grid" x1="192.8" y1="74" x2="192.8" y2="412"/><text x="192.8" y="432" text-anchor="middle" font-size="12">21</text><line class="grid" x1="276.0" y1="74" x2="276.0" y2="412"/><text x="276.0" y="432" text-anchor="middle" font-size="12">35</text><line class="grid" x1="484.0" y1="74" x2="484.0" y2="412"/><text x="484.0" y="432" text-anchor="middle" font-size="12">70</text><line class="grid" x1="692.0" y1="74" x2="692.0" y2="412"/><text x="692.0" y="432" text-anchor="middle" font-size="12">105</text>
<line class="axis" x1="68" y1="74" x2="68" y2="412"/><line class="axis" x1="68" y1="412" x2="692" y2="412"/><text x="380.0" y="454" text-anchor="middle" font-size="14">ISI (days)</text><text x="18" y="243.0" text-anchor="middle" font-size="14" transform="rotate(-90 18 243.0)">Final-test recall (%)</text>
<polyline class="fit" points="68.0,91.6 72.5,86.5 77.0,84.8 81.5,84.0 86.0,83.7 90.4,83.5 94.9,83.5 99.4,83.6 103.9,83.7 108.4,83.8 112.9,84.0 117.4,84.2 121.9,84.3 126.4,84.5 130.8,84.7 135.3,84.9 139.8,85.1 144.3,85.3 148.8,85.5 153.3,85.7 157.8,85.9 162.3,86.2 166.8,86.4 171.3,86.6 175.7,86.8 180.2,86.9 184.7,87.1 189.2,87.3 193.7,87.5 198.2,87.7 202.7,87.9 207.2,88.1 211.7,88.3 216.1,88.5 220.6,88.6 225.1,88.8 229.6,89.0 234.1,89.2 238.6,89.3 243.1,89.5 247.6,89.7 252.1,89.8 256.5,90.0 261.0,90.2 265.5,90.3 270.0,90.5 274.5,90.6 279.0,90.8 283.5,91.0 288.0,91.1 292.5,91.3 296.9,91.4 301.4,91.6 305.9,91.7 310.4,91.8 314.9,92.0 319.4,92.1 323.9,92.3 328.4,92.4 332.9,92.6 337.4,92.7 341.8,92.8 346.3,93.0 350.8,93.1 355.3,93.2 359.8,93.4 364.3,93.5 368.8,93.6 373.3,93.7 377.8,93.9 382.2,94.0 386.7,94.1 391.2,94.2 395.7,94.4 400.2,94.5 404.7,94.6 409.2,94.7 413.7,94.8 418.2,94.9 422.6,95.1 427.1,95.2 431.6,95.3 436.1,95.4 440.6,95.5 445.1,95.6 449.6,95.7 454.1,95.8 458.6,96.0 463.1,96.1 467.5,96.2 472.0,96.3 476.5,96.4 481.0,96.5 485.5,96.6 490.0,96.7 494.5,96.8 499.0,96.9 503.5,97.0 507.9,97.1 512.4,97.2 516.9,97.3 521.4,97.4 525.9,97.5 530.4,97.6 534.9,97.7 539.4,97.8 543.9,97.9 548.3,98.0 552.8,98.1 557.3,98.1 561.8,98.2 566.3,98.3 570.8,98.4 575.3,98.5 579.8,98.6 584.3,98.7 588.7,98.8 593.2,98.9 597.7,98.9 602.2,99.0 606.7,99.1 611.2,99.2 615.7,99.3 620.2,99.4 624.7,99.5 629.2,99.5 633.6,99.6 638.1,99.7 642.6,99.8 647.1,99.9 651.6,100.0 656.1,100.0 660.6,100.1 665.1,100.2 669.6,100.3 674.0,100.3 678.5,100.4 683.0,100.5 687.5,100.6 692.0,100.7" stroke="#1f77b4"/><circle class="pt" cx="68.0" cy="113.9" r="4" fill="#1f77b4" stroke="white"/><circle class="pt" cx="73.9" cy="83.1" r="4" fill="#1f77b4" stroke="white"/><circle class="pt" cx="79.9" cy="90.9" r="4" fill="#1f77b4" stroke="white"/><circle class="pt" cx="109.6" cy="95.0" r="4" fill="#1f77b4" stroke="white"/><circle class="pt" cx="192.8" cy="96.6" r="4" fill="#1f77b4" stroke="white"/><circle class="pt" cx="692.0" cy="139.6" r="4" fill="#1f77b4" stroke="white"/>
<polyline class="fit" points="68.0,223.7 72.5,199.0 77.0,186.6 81.5,179.1 86.0,174.1 90.4,170.5 94.9,167.9 99.4,165.9 103.9,164.3 108.4,163.1 112.9,162.2 117.4,161.4 121.9,160.8 126.4,160.3 130.8,160.0 135.3,159.7 139.8,159.5 144.3,159.4 148.8,159.3 153.3,159.3 157.8,159.3 162.3,159.4 166.8,159.5 171.3,159.6 175.7,159.7 180.2,159.8 184.7,160.0 189.2,160.2 193.7,160.4 198.2,160.6 202.7,160.8 207.2,161.0 211.7,161.2 216.1,161.5 220.6,161.7 225.1,162.0 229.6,162.2 234.1,162.5 238.6,162.8 243.1,163.0 247.6,163.3 252.1,163.6 256.5,163.9 261.0,164.1 265.5,164.4 270.0,164.7 274.5,165.0 279.0,165.3 283.5,165.5 288.0,165.8 292.5,166.1 296.9,166.4 301.4,166.7 305.9,167.0 310.4,167.3 314.9,167.5 319.4,167.8 323.9,168.1 328.4,168.4 332.9,168.7 337.4,169.0 341.8,169.2 346.3,169.5 350.8,169.8 355.3,170.1 359.8,170.4 364.3,170.6 368.8,170.9 373.3,171.2 377.8,171.5 382.2,171.7 386.7,172.0 391.2,172.3 395.7,172.5 400.2,172.8 404.7,173.1 409.2,173.3 413.7,173.6 418.2,173.9 422.6,174.1 427.1,174.4 431.6,174.6 436.1,174.9 440.6,175.2 445.1,175.4 449.6,175.7 454.1,175.9 458.6,176.2 463.1,176.4 467.5,176.7 472.0,176.9 476.5,177.2 481.0,177.4 485.5,177.7 490.0,177.9 494.5,178.1 499.0,178.4 503.5,178.6 507.9,178.9 512.4,179.1 516.9,179.3 521.4,179.6 525.9,179.8 530.4,180.0 534.9,180.2 539.4,180.5 543.9,180.7 548.3,180.9 552.8,181.2 557.3,181.4 561.8,181.6 566.3,181.8 570.8,182.0 575.3,182.3 579.8,182.5 584.3,182.7 588.7,182.9 593.2,183.1 597.7,183.3 602.2,183.5 606.7,183.8 611.2,184.0 615.7,184.2 620.2,184.4 624.7,184.6 629.2,184.8 633.6,185.0 638.1,185.2 642.6,185.4 647.1,185.6 651.6,185.8 656.1,186.0 660.6,186.2 665.1,186.4 669.6,186.6 674.0,186.8 678.5,187.0 683.0,187.2 687.5,187.4 692.0,187.6" stroke="#ff7f0e"/><circle class="pt" cx="68.0" cy="237.3" r="4" fill="#ff7f0e" stroke="white"/><circle class="pt" cx="73.9" cy="179.1" r="4" fill="#ff7f0e" stroke="white"/><circle class="pt" cx="91.8" cy="162.2" r="4" fill="#ff7f0e" stroke="white"/><circle class="pt" cx="109.6" cy="141.9" r="4" fill="#ff7f0e" stroke="white"/><circle class="pt" cx="133.4" cy="135.2" r="4" fill="#ff7f0e" stroke="white"/><circle class="pt" cx="192.8" cy="155.5" r="4" fill="#ff7f0e" stroke="white"/><circle class="pt" cx="692.0" cy="212.2" r="4" fill="#ff7f0e" stroke="white"/>
<polyline class="fit" points="68.0,295.6 72.5,275.2 77.0,263.7 81.5,256.1 86.0,250.6 90.4,246.4 94.9,243.1 99.4,240.5 103.9,238.3 108.4,236.5 112.9,235.0 117.4,233.7 121.9,232.6 126.4,231.6 130.8,230.8 135.3,230.1 139.8,229.5 144.3,228.9 148.8,228.5 153.3,228.0 157.8,227.7 162.3,227.4 166.8,227.1 171.3,226.9 175.7,226.7 180.2,226.6 184.7,226.5 189.2,226.4 193.7,226.3 198.2,226.2 202.7,226.2 207.2,226.2 211.7,226.2 216.1,226.2 220.6,226.2 225.1,226.2 229.6,226.3 234.1,226.3 238.6,226.4 243.1,226.5 247.6,226.6 252.1,226.7 256.5,226.8 261.0,226.9 265.5,227.0 270.0,227.1 274.5,227.2 279.0,227.3 283.5,227.5 288.0,227.6 292.5,227.7 296.9,227.9 301.4,228.0 305.9,228.2 310.4,228.3 314.9,228.5 319.4,228.6 323.9,228.8 328.4,229.0 332.9,229.1 337.4,229.3 341.8,229.4 346.3,229.6 350.8,229.8 355.3,230.0 359.8,230.1 364.3,230.3 368.8,230.5 373.3,230.6 377.8,230.8 382.2,231.0 386.7,231.2 391.2,231.3 395.7,231.5 400.2,231.7 404.7,231.9 409.2,232.0 413.7,232.2 418.2,232.4 422.6,232.6 427.1,232.8 431.6,232.9 436.1,233.1 440.6,233.3 445.1,233.5 449.6,233.6 454.1,233.8 458.6,234.0 463.1,234.2 467.5,234.4 472.0,234.5 476.5,234.7 481.0,234.9 485.5,235.1 490.0,235.2 494.5,235.4 499.0,235.6 503.5,235.8 507.9,235.9 512.4,236.1 516.9,236.3 521.4,236.5 525.9,236.6 530.4,236.8 534.9,237.0 539.4,237.1 543.9,237.3 548.3,237.5 552.8,237.7 557.3,237.8 561.8,238.0 566.3,238.2 570.8,238.3 575.3,238.5 579.8,238.7 584.3,238.8 588.7,239.0 593.2,239.2 597.7,239.3 602.2,239.5 606.7,239.7 611.2,239.8 615.7,240.0 620.2,240.2 624.7,240.3 629.2,240.5 633.6,240.6 638.1,240.8 642.6,241.0 647.1,241.1 651.6,241.3 656.1,241.4 660.6,241.6 665.1,241.8 669.6,241.9 674.0,242.1 678.5,242.2 683.0,242.4 687.5,242.5 692.0,242.7" stroke="#2ca02c"/><circle class="pt" cx="68.0" cy="313.6" r="4" fill="#2ca02c" stroke="white"/><circle class="pt" cx="73.9" cy="269.7" r="4" fill="#2ca02c" stroke="white"/><circle class="pt" cx="109.6" cy="208.9" r="4" fill="#2ca02c" stroke="white"/><circle class="pt" cx="151.2" cy="238.6" r="4" fill="#2ca02c" stroke="white"/><circle class="pt" cx="192.8" cy="205.1" r="4" fill="#2ca02c" stroke="white"/><circle class="pt" cx="692.0" cy="268.7" r="4" fill="#2ca02c" stroke="white"/>
<polyline class="fit" points="68.0,376.2 72.5,370.5 77.0,367.0 81.5,364.5 86.0,362.7 90.4,361.2 94.9,359.9 99.4,358.9 103.9,357.9 108.4,357.2 112.9,356.4 117.4,355.8 121.9,355.3 126.4,354.7 130.8,354.3 135.3,353.8 139.8,353.5 144.3,353.1 148.8,352.8 153.3,352.4 157.8,352.1 162.3,351.9 166.8,351.6 171.3,351.4 175.7,351.2 180.2,350.9 184.7,350.7 189.2,350.6 193.7,350.4 198.2,350.2 202.7,350.0 207.2,349.9 211.7,349.7 216.1,349.6 220.6,349.5 225.1,349.3 229.6,349.2 234.1,349.1 238.6,349.0 243.1,348.9 247.6,348.8 252.1,348.7 256.5,348.6 261.0,348.5 265.5,348.5 270.0,348.4 274.5,348.3 279.0,348.2 283.5,348.2 288.0,348.1 292.5,348.0 296.9,348.0 301.4,347.9 305.9,347.9 310.4,347.8 314.9,347.7 319.4,347.7 323.9,347.7 328.4,347.6 332.9,347.6 337.4,347.5 341.8,347.5 346.3,347.4 350.8,347.4 355.3,347.4 359.8,347.3 364.3,347.3 368.8,347.3 373.3,347.3 377.8,347.2 382.2,347.2 386.7,347.2 391.2,347.2 395.7,347.1 400.2,347.1 404.7,347.1 409.2,347.1 413.7,347.1 418.2,347.0 422.6,347.0 427.1,347.0 431.6,347.0 436.1,347.0 440.6,347.0 445.1,346.9 449.6,346.9 454.1,346.9 458.6,346.9 463.1,346.9 467.5,346.9 472.0,346.9 476.5,346.9 481.0,346.9 485.5,346.9 490.0,346.9 494.5,346.9 499.0,346.9 503.5,346.9 507.9,346.9 512.4,346.9 516.9,346.8 521.4,346.8 525.9,346.8 530.4,346.8 534.9,346.8 539.4,346.8 543.9,346.8 548.3,346.9 552.8,346.9 557.3,346.9 561.8,346.9 566.3,346.9 570.8,346.9 575.3,346.9 579.8,346.9 584.3,346.9 588.7,346.9 593.2,346.9 597.7,346.9 602.2,346.9 606.7,346.9 611.2,346.9 615.7,346.9 620.2,346.9 624.7,346.9 629.2,346.9 633.6,346.9 638.1,347.0 642.6,347.0 647.1,347.0 651.6,347.0 656.1,347.0 660.6,347.0 665.1,347.0 669.6,347.0 674.0,347.0 678.5,347.0 683.0,347.1 687.5,347.1 692.0,347.1" stroke="#d62728"/><circle class="pt" cx="68.0" cy="370.1" r="4" fill="#d62728" stroke="white"/><circle class="pt" cx="73.9" cy="369.8" r="4" fill="#d62728" stroke="white"/><circle class="pt" cx="109.6" cy="362.3" r="4" fill="#d62728" stroke="white"/><circle class="pt" cx="192.8" cy="338.0" r="4" fill="#d62728" stroke="white"/><circle class="pt" cx="276.0" cy="344.7" r="4" fill="#d62728" stroke="white"/><circle class="pt" cx="484.0" cy="342.4" r="4" fill="#d62728" stroke="white"/><circle class="pt" cx="692.0" cy="367.0" r="4" fill="#d62728" stroke="white"/>
<rect x="528" y="68" width="160" height="106" rx="4" fill="white" fill-opacity=".88" stroke="#bbb"/><line x1="540" y1="86" x2="566" y2="86" stroke="#1f77b4" stroke-width="2"/><circle cx="553" cy="86" r="3.5" fill="#1f77b4" stroke="white"/><text x="575" y="90" font-size="12">RI = 7 d</text><line x1="540" y1="108" x2="566" y2="108" stroke="#ff7f0e" stroke-width="2"/><circle cx="553" cy="108" r="3.5" fill="#ff7f0e" stroke="white"/><text x="575" y="112" font-size="12">RI = 35 d</text><line x1="540" y1="130" x2="566" y2="130" stroke="#2ca02c" stroke-width="2"/><circle cx="553" cy="130" r="3.5" fill="#2ca02c" stroke="white"/><text x="575" y="134" font-size="12">RI = 70 d</text><line x1="540" y1="152" x2="566" y2="152" stroke="#d62728" stroke-width="2"/><circle cx="553" cy="152" r="3.5" fill="#d62728" stroke="white"/><text x="575" y="156" font-size="12">RI = 350 d</text><text x="76" y="402" font-size="11">lines = model fit; circles = observed data</text>
</svg>
